<?xml version="1.0" ?><!DOCTYPE svg  PUBLIC '-//W3C//DTD SVG 1.1//EN'  'http://www.w3.org/Graphics/SVG/1.1/DTD/svg11.dtd'><svg enable-background="new 0 0 512 512" id="Layer_1" version="1.1" viewBox="0 0 512 512" xml:space="preserve" xmlns="http://www.w3.org/2000/svg" xmlns:xlink="http://www.w3.org/1999/xlink"><g><path d="M258.6,507.2C120.3,507.7,6.5,392.6,9.9,251.7C13.1,117.9,124,7.1,262.1,8.7c136.7,1.6,249.5,115.4,246,255.8   C504.8,398,394.7,508,258.6,507.2z M477.8,258.1c-1-123.5-99.1-218.2-215.4-220.1c-119.9-1.9-222.1,94.8-222,220.2   C40.5,381.5,139.2,476,255.3,478C375.3,480,476.8,383.4,477.8,258.1z"/><path d="M193.9,292.4c-1.1-10.4-2.1-20-3.1-30.1c-10.1-0.7-20.7-3.3-30.2-9.2c-26.4-16.6-37-41.6-36.7-71.6   c0.4-43.5,37.9-80.1,81.4-80.2c26.3-0.1,52.6,0,79,0c4,0,8,0.2,9.5,4.6c1.5,4.3,0.3,8-3.6,11c-4.1,3.2-8,6.5-11.8,10.1   c-4.2,4-8.5,7.6-15.3,5.9c2.8,6.4,5.9,12.1,7.8,18.2c10.9,34.7,5.1,65.4-22.1,90.9c-3.1,2.9-6.2,6.1-8.9,9.4   c-5,6.1-5.5,12.7-0.5,18.7c6.5,7.7,13.2,15.5,20.9,21.9c35.3,29.5,38.7,96.3-2.2,127.3c-13.2,10-27.9,16.2-44.2,18.1   c-27.1,3.1-53.2-0.2-77.2-14.3c-16.2-9.5-27.8-23-30.7-42.1c-2.8-18.9,2.6-36.1,13.8-51.2c17.1-23.1,40.6-34.7,69-36.9   C190.9,292.6,192.9,292.5,193.9,292.4z M201.2,317.7c-8-0.1-17.1,1.8-25.4,6.3c-16.1,8.6-27.6,20.7-26.5,40.4   c1,17.3,10.3,29.7,25.6,37.1c17.2,8.3,34.9,6.2,52.5,0.8c27.4-8.5,34.6-49.4,12.4-66.4c-3.7-2.8-7.3-5.8-10.6-9.1   C221.9,319.2,212.6,317.7,201.2,317.7z M165.5,170.2c1.7,9.6,2.5,17.7,4.7,25.5c4.1,14.5,10.9,27.6,23.8,36.3   c12.2,8.2,25,5,32.1-7.8c7.3-13.1,8.2-27.2,5.9-41.7c-2.6-16.8-8.7-32.1-21.7-43.7c-14.2-12.7-30.4-9.9-38.3,7.3   C168.5,153.9,167.4,162.9,165.5,170.2z"/><path d="M341.8,238.2c0-18.8,0-36.6,0-54.4c0-2.3,0.1-4.8,1.1-6.7c2.7-5,21.2-5,24,0c1.1,2,1.5,4.8,1.5,7.2c0.1,16,0.1,32,0.1,48   c0,1.8,0,3.6,0,6c3.4,0,6.2,0,9,0c11.8,0,23.7,0,35.5,0c7.9,0,9.9,2.1,9.9,10.2c0,4.2,0,8.3,0,12.5c-0.1,6.8-2.3,9-9,9.1   c-13.2,0-26.3,0-39.5,0c-1.8,0-3.6,0-6,0c0,3.7,0,6.8,0,10c0,14.5,0,29,0,43.5c0,9-1.9,10.9-10.7,11c-2.2,0-4.3,0-6.5,0   c-7.7,0-9.5-1.8-9.6-9.4c0-16.3,0-32.7,0-49c0-1.8,0-3.6,0-5.8c-2.3-0.1-4.1-0.2-5.8-0.2c-13.3,0-26.7,0-40,0   c-6.2,0-8.8-2.5-8.9-8.7c-0.1-4.8-0.1-9.7,0-14.5c0.2-5.9,2.7-8.4,8.7-8.5c13.3-0.1,26.7,0,40,0   C337.6,238.2,339.4,238.2,341.8,238.2z"/></g></svg>